<?xml version="1.0" encoding="utf-8"?>
<!-- Generator: Adobe Illustrator 24.2.1, SVG Export Plug-In . SVG Version: 6.00 Build 0)  -->
<svg version="1.1" id="Capa_1" xmlns="http://www.w3.org/2000/svg" xmlns:xlink="http://www.w3.org/1999/xlink" x="0px" y="0px"
	 viewBox="0 0 500 500" style="enable-background:new 0 0 500 500;" xml:space="preserve">
<style type="text/css">
	.st0{fill:#FFFFFF;}
</style>
<g>
	<g>
		<g id="Flame_1_">
			<path class="st0" d="M320.2,478.7c18.1-36.2,39.7-97.9,9.5-124.5c-27.8,4.2-50.3,4.2-68.6,0.1c-46.1-10.3-60.6-46.8-47.9-93.5
				c-62,56.6-64.6,140.1-41.6,220.5c3.7,13.1-10.9,23.8-22.2,16.2c-3.9-2.6-94.4-64-94.4-158.6c0-155,175.8-161.7,175.8-324.2
				c0-12.4,14.5-19.2,24.1-11.2C325,62.4,452.8,204,445.7,334.2c-3.6,64.6-38.6,119.5-104.3,163.3
				C329,505.8,313.5,492.1,320.2,478.7z"/>
		</g>
	</g>
</g>
</svg>
