<?xml version="1.0" encoding="utf-8"?>
<!-- Generator: Adobe Illustrator 24.2.1, SVG Export Plug-In . SVG Version: 6.00 Build 0)  -->
<svg version="1.1" id="Capa_1" xmlns="http://www.w3.org/2000/svg" xmlns:xlink="http://www.w3.org/1999/xlink" x="0px" y="0px"
	 viewBox="0 0 500 500" style="enable-background:new 0 0 500 500;" xml:space="preserve">
<style type="text/css">
	.st0{fill:#FFFFFF;}
</style>
<g>
	<g>
		<g>
			<path class="st0" d="M367.2,41c-27.1,0-52,8.6-73.9,25.6c-21,16.3-35,37-43.3,52c-8.2-15.1-22.2-35.8-43.3-52
				c-21.9-17-46.8-25.6-73.9-25.6C57.1,41,0,102.9,0,185.1c0,88.7,71.2,149.4,179.1,241.3c18.3,15.6,39.1,33.3,60.6,52.2
				c2.8,2.5,6.5,3.9,10.3,3.9s7.4-1.4,10.3-3.9c21.6-18.9,42.3-36.6,60.7-52.2C428.8,334.5,500,273.8,500,185.1
				C500,102.9,442.9,41,367.2,41z"/>
		</g>
	</g>
	<g>
	</g>
	<g>
	</g>
	<g>
	</g>
	<g>
	</g>
	<g>
	</g>
	<g>
	</g>
	<g>
	</g>
	<g>
	</g>
	<g>
	</g>
	<g>
	</g>
	<g>
	</g>
	<g>
	</g>
	<g>
	</g>
	<g>
	</g>
	<g>
	</g>
</g>
</svg>
