<?xml version="1.0" encoding="utf-8"?>
<!-- Generator: Adobe Illustrator 24.2.1, SVG Export Plug-In . SVG Version: 6.00 Build 0)  -->
<svg version="1.1" id="Capa_1" xmlns="http://www.w3.org/2000/svg" xmlns:xlink="http://www.w3.org/1999/xlink" x="0px" y="0px"
	 viewBox="0 0 500 500" style="enable-background:new 0 0 500 500;" xml:space="preserve">
<style type="text/css">
	.st0{fill:#FFFFFF;}
</style>
<g>
	<g>
		<g>
			<path class="st0" d="M494.5,237.4l-35.7-35.7L262.1,5.2c-7-7-18.3-7-25.3,0L40.2,201.7L4.5,237.4c-6.9,7.1-6.7,18.4,0.4,25.2
				c6.9,6.7,17.9,6.7,24.8,0l5.2-5.2v239.5c0,1.7,1.4,3.1,3.1,3.1H160V303.9c0-9.9,8-17.9,17.9-17.9h143.3c9.9,0,17.9,8,17.9,17.9
				V500h121.9c1.7,0,3.1-1.4,3.1-3.1V257.4l5.2,5.2c7.1,6.9,18.4,6.7,25.3-0.4C501.2,255.3,501.2,244.3,494.5,237.4z"/>
		</g>
	</g>
	<g>
	</g>
	<g>
	</g>
	<g>
	</g>
	<g>
	</g>
	<g>
	</g>
	<g>
	</g>
	<g>
	</g>
	<g>
	</g>
	<g>
	</g>
	<g>
	</g>
	<g>
	</g>
	<g>
	</g>
	<g>
	</g>
	<g>
	</g>
	<g>
	</g>
</g>
</svg>
