<?xml version="1.0" encoding="utf-8"?>
<!-- Generator: Adobe Illustrator 24.2.1, SVG Export Plug-In . SVG Version: 6.00 Build 0)  -->
<svg version="1.1" id="Capa_1" xmlns="http://www.w3.org/2000/svg" xmlns:xlink="http://www.w3.org/1999/xlink" x="0px" y="0px"
	 viewBox="0 0 3360.1 1122" style="enable-background:new 0 0 3360.1 1122;" xml:space="preserve">
<style type="text/css">
	.st0{fill:none;stroke:#CC2229;stroke-width:16;stroke-miterlimit:10;}
	.st1{font-family:'ArialMT';}
	.st2{font-size:579.9429px;}
	.st3{fill:#FAEDD3;}
	.st4{fill:#EEC36B;}
	.st5{fill:#812124;}
	.st6{fill:#65191A;}
	.st7{opacity:0.1;}
	.st8{fill:#000100;}
	.st9{fill:#FFFCE3;}
	.st10{fill:#B5252B;}
	.st11{fill:#EBB95C;}
</style>
<g id="BG">
	<text transform="matrix(0.9444 0 0 1 1079.1133 802.3936)" class="st0 st1 st2">Movie.es</text>
</g>
<g id="Object">
	<g>
		<g>
			<path class="st3" d="M832.1,284c5,0.6,10.3-0.2,15.2-2.6c13.2-6.5,18.4-22,11.7-34.8c-5.9-11.4-19.3-16.6-31.5-13.1
				c-0.3-4.1-1.4-8.3-3.4-12.2c-8.1-15.5-27.6-21.6-43.5-13.8s-22.3,26.7-14.2,42.2c2.5,4.7,6,8.6,10.2,11.4
				c-7.5,9-9.3,21.8-3.5,32.8c7.8,15,26.7,21,42.2,13.4C824.8,302.6,830.8,293.6,832.1,284z"/>
			<path class="st4" d="M815.1,307.3c9.6-4.7,15.7-13.6,16.9-23.3c5,0.6,10.3-0.2,15.2-2.6c7.9-3.9,12.9-11,14.3-18.9
				c-3,3.5-6.8,6.5-11.3,8.7c-9.8,4.8-20.7,4.9-30.1,1.1c-2.4,9.6-8.9,18.1-18.7,22.9c-8.4,4.1-17.6,4.8-26,2.5
				C784.1,309.9,801,314.2,815.1,307.3z"/>
		</g>
		<g>
			<path class="st3" d="M741.6,258.5c2.5,0.1,5-0.2,7.5-0.7c16.1-3.5,26.2-19,22.6-34.6c-3.4-14.5-17.6-24-32.5-22.3
				c0.2-2.4,0.1-4.9-0.5-7.4c-3-12.8-16.1-20.8-29.4-17.9c-13.2,2.9-21.5,15.6-18.6,28.3c-8.5,3.1-13.6,12-11.5,20.8
				c2.1,8.9,10.7,14.8,19.9,14c-5.1,5.5-7.5,13.3-5.7,21.1c3,12.8,16.1,20.8,29.4,17.9C732.8,275.5,740,267.7,741.6,258.5z
				 M712.7,231.2c0,0-0.1,0-0.2,0c0-0.1,0.1-0.1,0.2-0.2C712.7,231.1,712.7,231.1,712.7,231.2z"/>
			<g>
				<path class="st4" d="M722.8,277.6c10-2.2,17.2-10,18.8-19.1c2.5,0.1,5-0.2,7.5-0.7c16.1-3.5,26.2-19,22.6-34.6
					c-0.8-3.4-2.2-6.6-4.1-9.3c0.2,0.5,0.3,1.1,0.4,1.6c3.3,14.2-5.9,28.3-20.6,31.5c-5.8,1.3-11.7,0.6-16.8-1.5
					c2.8,13-5.7,25.8-19.1,28.7c-1.5,0.3-3.1,0.5-4.6,0.6c-0.5,0.2-1,0.4-1.5,0.6C710.7,278,716.7,279,722.8,277.6z"/>
			</g>
		</g>
		<g>
			<path class="st5" d="M977.8,358.4c0-13.3-11.1-24.1-24.8-24.1c-12,0-22,8.2-24.4,19.2c-1.7-11.7-12-20.7-24.6-20.8
				c-13.7,0-24.9,10.8-24.9,24.1c0,0.3,0,0.5,0,0.8h0c0-0.5,0-0.7,0-0.8c0-13.1-10.9-23.4-24.4-23.4c-13.5,0-24.5,10.6-24.5,23.7
				c0,0.1,0,0.3,0,0.4h0c0-0.3,0-0.5,0-0.8c0-13.3-11.1-24.1-24.8-24.1c-13.7,0-24.9,10.8-24.9,24.1c0,0.3,0,0.5,0,0.8h0
				c0-0.2,0-0.4,0-0.4c0-13.1-10.9-23.7-24.4-23.8c-13.5,0-24.5,10.6-24.5,23.7c0,0.1,0,0.3,0,0.4h0c0-0.3,0-0.5,0-0.8
				c0-13.3-11.1-24.1-24.8-24.1c-13.7,0-24.9,10.8-24.9,24.1c0,0.3,0,0.5,0,0.8h0c0-0.1,0-0.3,0-0.4c0-13.1-10.9-23.7-24.4-23.8
				c-13.5,0-24.5,10.6-24.5,23.7c0,0,0,0.1,0,0.4h0c0-0.3,0-0.5,0-0.8c0-13.3-11.1-24.1-24.8-24.1c-13.7,0-24.9,10.8-24.9,24.1
				c0,0.3,0,0.5,0,0.8h0c0-0.1,0-0.3,0-0.4c0-13.1-10.9-23.7-24.4-23.8c-13.5,0-24.5,10.6-24.5,23.7c0,1.8,26.8,411.5,32.6,500.5
				c0,0,0,0,0,0l0.8,12.7c0.2,2.8,0.3,4.2,0.3,4.2l42,0.1l0-0.1l42,0.1c0,0.1,0,0.1,0,0.1l41.2,0.1v-0.1l42,0.1v0.1l42,0.1
				c0,0,0,0,0-0.1l42,0.1v0.1l42,0.1c0,0,0,0,0-0.1l42,0.1l0,0.1l41.2,0.1c0,0,0,0,0-0.1h0.1l0-0.2h0.2l19.9-308.3c0,0,0,0,0,0
				C971.5,456.3,977.8,359.3,977.8,358.4z"/>
			<polygon class="st6" points="945.9,874.2 914,902.8 947.5,386.9 977.8,361.4 			"/>
		</g>
		<g>
			<path class="st3" d="M845.1,308.5c-0.8-5.7-3.4-11.1-7.6-15.7c-11.5-12.4-31.1-13.4-43.9-2.3c-11.4,9.9-13.5,26.1-5.7,38.3
				c-4.7,1.5-9.2,4-13.1,7.4c-15.5,13.5-16.8,36.6-2.9,51.6c13.9,15,37.7,16.3,53.2,2.8c4.7-4.1,8.2-9.1,10.2-14.6
				c12.7,5.4,28.1,3.5,39.1-6c15-13,16.3-35.4,2.8-50C868.8,310.9,856.7,307,845.1,308.5z"/>
			<path class="st4" d="M877.2,320c-8.4-9.1-20.5-13-32.1-11.5c-0.8-5.7-3.4-11.1-7.6-15.7c-6.9-7.4-16.7-10.8-26.2-9.9
				c5,2.3,9.6,5.5,13.5,9.7c8.5,9.2,11.9,21.1,10.3,32.5c11.8-0.3,23.7,4.3,32.2,13.5c7.3,7.9,10.8,17.8,10.7,27.6
				C889.5,353,889.5,333.3,877.2,320z"/>
		</g>
		<g>
			<path class="st3" d="M715.9,420c5.7,1.6,11.9,1.6,17.9-0.3c16.4-5,25.4-22,20.2-37.8c-4.6-14.1-19-22.6-33.6-20.8
				c0.5-4.8,0-9.8-1.6-14.6c-6.3-19.2-27.5-29.9-47.3-23.8c-19.8,6.1-30.8,26.6-24.5,45.9c1.9,5.9,5.2,11,9.5,15
				c-10.3,9-14.9,23.4-10.4,37c6.1,18.6,26.6,29,45.8,23.1C704,440,712.6,430.9,715.9,420z"/>
			<path class="st4" d="M692,443.7c12-3.7,20.6-12.8,24-23.7c5.7,1.6,11.9,1.6,17.9-0.3c9.8-3,17-10.3,20-19.1
				c-4.2,3.5-9.1,6.2-14.7,8c-12.2,3.7-24.8,1.8-34.8-4.2c-4.6,10.5-13.8,19.1-25.9,22.9c-10.4,3.2-21.2,2.2-30.4-1.9
				C655.8,441,674.4,449.1,692,443.7z"/>
		</g>
		<g>
			<path class="st3" d="M609.2,323.3c0.8-3,1.3-6.2,1.3-9.5c0-21-17.5-38.1-39.2-38.1c-20.2,0-36.9,14.8-39,33.9
				c-3.1-1-6.5-1.5-9.9-1.5c-17.8,0-32.3,13.9-32.3,31.2c0,17.2,14.3,31.2,32.1,31.3c1.7,11.5,11.9,20.4,24.2,20.4
				c12.4,0,22.7-9,24.3-20.6c5.8,7.9,15.4,13.1,26.2,13.1c17.8,0,32.3-13.9,32.3-31.2C629,339.2,620.9,328,609.2,323.3z
				 M564.6,351.2c0,0.1,0,0.1,0,0.2c-0.1-0.1-0.2-0.2-0.2-0.3C564.4,351.1,564.5,351.1,564.6,351.2z"/>
			<g>
				<path class="st4" d="M629,352.2c0-13-8.2-24.2-19.8-28.9c0.8-3,1.3-6.2,1.3-9.5c0-21-17.5-38.1-39.2-38.1
					c-4.8,0-9.3,0.8-13.5,2.3c0.8,0,1.5-0.1,2.3-0.1c19.7,0,35.7,15.6,35.7,34.7c0,7.6-2.6,14.6-6.9,20.3c18,0.3,32.4,14.5,32.4,32
					c0,2-0.2,4-0.6,5.8c0.1,0.6,0.2,1.3,0.3,2C626,367.3,629,360.1,629,352.2z"/>
			</g>
		</g>
		<g>
			<path class="st3" d="M775.5,316c0.8-3,1.3-6.2,1.3-9.5c0-21-17.5-38.1-39.2-38.1c-20.2,0-36.9,14.8-39,33.9
				c-3.1-1-6.5-1.5-9.9-1.5c-17.8,0-32.3,14-32.3,31.2c0,17.2,14.3,31.2,32,31.3c1.7,11.5,11.9,20.4,24.2,20.4
				c12.4,0,22.7-9,24.3-20.6c5.8,7.9,15.4,13.1,26.2,13.1c17.8,0,32.3-13.9,32.3-31.2C795.3,331.9,787.1,320.7,775.5,316z
				 M730.8,343.9c0,0.1,0,0.1,0,0.2c-0.1-0.1-0.2-0.2-0.2-0.3C730.7,343.9,730.8,343.9,730.8,343.9z"/>
			<g>
				<path class="st4" d="M795.3,344.9c0-13-8.2-24.2-19.8-28.9c0.8-3,1.3-6.2,1.3-9.5c0-21-17.5-38.1-39.2-38.1
					c-4.8,0-9.3,0.8-13.5,2.3c0.8,0,1.5-0.1,2.3-0.1c19.7,0,35.7,15.6,35.7,34.7c0,7.6-2.6,14.6-6.9,20.3c18,0.3,32.4,14.5,32.4,32
					c0,2-0.2,4-0.6,5.8c0.1,0.6,0.2,1.3,0.3,2C792.2,360,795.3,352.8,795.3,344.9z"/>
			</g>
		</g>
		<g>
			<path class="st3" d="M681.7,252.4c1.4-2.5,2.5-5.1,3.3-8c4.9-18.2-6.3-36.7-25-41.5c-17.5-4.4-35.3,4.7-41.6,20.7
				c-2.5-1.5-5.2-2.7-8.2-3.5c-15.4-3.9-31.1,5-35.2,19.9c-4,14.9,5.1,30.1,20.4,34.1c-1.2,10.3,5.5,20.2,16.2,22.9
				c10.8,2.7,21.7-2.8,25.8-12.5c3.2,8.1,10.3,14.7,19.6,17.1c15.4,3.9,31.1-5,35.2-19.9C695.2,270.5,690.7,259,681.7,252.4z
				 M636.6,266.8c0,0.1,0,0.1,0,0.2c0-0.1-0.1-0.2-0.1-0.3C636.5,266.7,636.5,266.7,636.6,266.8z"/>
			<g>
				<path class="st4" d="M692.1,281.7c3-11.3-1.5-22.7-10.4-29.3c1.4-2.5,2.5-5.1,3.3-8c4.9-18.2-6.3-36.7-25-41.5
					c-4.1-1.1-8.3-1.3-12.3-1c0.7,0.1,1.3,0.3,2,0.4c17.1,4.3,27.3,21.3,22.8,37.8c-1.8,6.6-5.6,12.1-10.7,16.1
					c15.5,4.2,24.7,19.7,20.6,34.8c-0.5,1.7-1.1,3.4-1.8,4.9c0,0.6-0.1,1.2-0.2,1.8C686,294.1,690.3,288.5,692.1,281.7z"/>
			</g>
		</g>
		<g>
			<path class="st3" d="M939.5,324c-1.8-6.4-6.1-12.2-12.6-15.7c-12.9-7.1-29.2-2.8-36.6,9.7c-4.8,8.2-4.5,18-0.1,25.6
				c-6.3,3.1-11.7,8-15.4,14.3c-10.3,17.5-4,39.8,14,49.8c18.1,10,41.1,3.9,51.4-13.6c2.2-3.6,3.6-7.5,4.3-11.4
				c13.8,3.5,28.8-2.2,36.1-14.8c8.8-15,3.5-34.1-12-42.6C959.4,320.2,948.6,320,939.5,324z"/>
			<path class="st4" d="M939.5,324c-1.8-6.4-6.1-12.2-12.6-15.7c-9.3-5.2-20.5-4.3-28.7,1.3c6.7-1.6,14-0.8,20.5,2.8
				c10.1,5.6,15.2,16.3,13.9,26.9c8.5-5.2,19.5-5.8,28.8-0.6c13.4,7.4,18.1,24,10.4,37c-0.8,1.4-1.8,2.7-2.8,3.9
				c4.7-2.7,8.8-6.5,11.7-11.5c8.8-15,3.5-34.1-12-42.6C959.4,320.2,948.6,320,939.5,324z"/>
		</g>
		<g>
			<path class="st3" d="M663.9,395.1c5.7,1.6,11.9,1.6,17.9-0.3c16.4-5,25.4-22,20.2-37.8c-4.6-14.1-19-22.6-33.6-20.8
				c0.5-4.8,0-9.8-1.6-14.6c-6.3-19.2-27.5-29.9-47.3-23.8c-19.8,6.1-30.8,26.6-24.5,45.9c1.9,5.9,5.2,11,9.5,15
				c-10.3,9-14.9,23.4-10.4,37c6.1,18.6,26.6,29,45.8,23.1C651.9,415.1,660.6,406,663.9,395.1z"/>
			<path class="st4" d="M640,418.8c12-3.7,20.6-12.8,24-23.7c5.7,1.6,11.9,1.6,17.9-0.3c9.8-3,17-10.3,20-19.1
				c-4.2,3.5-9.1,6.2-14.7,8c-12.2,3.7-24.8,1.8-34.8-4.2c-4.6,10.5-13.8,19.1-25.9,22.9c-10.4,3.2-21.2,2.2-30.4-1.9
				C603.8,416,622.4,424.1,640,418.8z"/>
		</g>
		<g class="st7">
			<path class="st8" d="M952.9,378.6c0-13.3-11.1-24.1-24.8-24.1c-12,0-22,8.2-24.4,19.2c-1.7-11.7-12-20.7-24.6-20.8
				c-13.7,0-24.9,10.8-24.9,24.1c0,0.3,0,0.5,0,0.8h0c0-0.5,0-0.7,0-0.8c0-13.1-10.9-23.4-24.4-23.4c-13.5,0-24.5,10.6-24.5,23.7
				c0,0.1,0,0.3,0,0.4h0c0-0.3,0-0.5,0-0.8c0-13.3-11.1-24.1-24.8-24.1c-13.7,0-24.9,10.8-24.9,24.1c0,0.3,0,0.5,0,0.8h0
				c0-0.2,0-0.4,0-0.4c0-13.1-10.9-23.7-24.4-23.8c-13.5,0-24.5,10.6-24.5,23.7c0,0.1,0,0.3,0,0.4h0c0-0.3,0-0.5,0-0.8
				c0-13.3-11.1-24.1-24.8-24.1c-13.7,0-24.9,10.8-24.9,24.1c0,0.3,0,0.5,0,0.8h0c0-0.1,0-0.3,0-0.4c0-13.1-10.9-23.7-24.4-23.8
				c-13.5,0-24.5,10.6-24.5,23.7c0,0,0,0.2,0,0.4h0c0-0.3,0-0.5,0-0.8c0-13.3-11.1-24.1-24.8-24.1c-13.7,0-24.9,10.8-24.9,24.1
				c0,0.3,0,0.5,0,0.8h0c0-0.1,0-0.3,0-0.4c0-13.1-10.9-23.7-24.4-23.8c-13.5,0-24.5,10.6-24.5,23.7c0,1.8,26.8,411.5,32.6,500.5
				c0,0,0,0,0,0l0.9,12.7c0.2,2.8,0.3,4.2,0.3,4.2l42,0.1l0-0.1l42,0.1c0,0.1,0,0.1,0,0.1l41.2,0.1v-0.1l42,0.1v0.1l42,0.1
				c0,0,0,0,0-0.1l42,0.1v0.1l42,0.1c0,0,0,0,0-0.1l42,0.1l0,0.1l41.2,0.1c0,0,0,0,0-0.1h0.1l0-0.2h0.2l19.9-308.3c0,0,0,0,0,0
				C946.5,476.5,952.9,379.5,952.9,378.6z"/>
		</g>
		<g>
			<path class="st9" d="M898.5,386.1c0-0.3,0-0.5,0-0.8c0-13.3-11.1-24.1-24.8-24.1c-13.7,0-24.9,10.8-24.9,24.1c0,0.3,0,0.5,0,0.8
				l-49-0.1c0-0.3,0-0.5,0-0.8c0-13.3-11.1-24.1-24.8-24.1s-24.9,10.8-24.9,24.1c0,0.3,0,0.5,0,0.8l-49-0.1c0-0.3,0-0.5,0-0.8
				c0-13.3-11.1-24.1-24.8-24.1s-24.9,10.8-24.9,24.1c0,0.3,0,0.5,0,0.8l-49-0.1c0-0.3,0-0.5,0-0.8c0-13.3-11.1-24.1-24.8-24.1
				s-24.9,10.8-24.9,24.1c0,0.3,0,0.5,0,0.8l-48.3-0.1l33.9,517l375.3,0.6l33.1-516.9L898.5,386.1z"/>
			<g>
				<path class="st10" d="M552.8,386c0-0.3,0-0.5,0-0.8c0-13.1-10.9-23.7-24.4-23.8c-13.5,0-24.5,10.6-24.5,23.7
					c0,2,33.7,517.5,33.7,517.5l42,0.1L552.8,386z"/>
				<path class="st10" d="M651.5,386.1c0-0.3,0-0.5,0-0.8c0-13.1-10.9-23.7-24.4-23.8c-13.5,0-24.5,10.6-24.5,23.7
					c0,1.7,19,517.5,19,517.5l41.2,0.1L651.5,386.1z"/>
				<path class="st10" d="M725.7,361.7c-13.5,0-24.5,10.6-24.5,23.7c0,0.3,0,0.5,0,0.8l3.4,516.7l42,0.1c0,0,3.6-516,3.6-517.4
					C750.2,372.4,739.3,361.8,725.7,361.7z"/>
				<path class="st10" d="M824.4,361.9c-13.5,0-24.5,10.6-24.5,23.7c0,0.3,0,0.5,0,0.8L788.6,903l42,0.1c0,0,18.3-516.1,18.3-517.8
					C848.8,372.2,837.9,361.9,824.4,361.9z"/>
				<path class="st10" d="M947.5,386.9c0-13.3-11.1-24.1-24.8-24.1c-13.6,0-24.7,10.5-24.9,23.7l-25.3,516.6l41.2,0.1
					C913.6,903.2,947.5,389,947.5,386.9z"/>
			</g>
			<g class="st7">
				
					<ellipse transform="matrix(1.441260e-03 -1 1 1.441260e-03 85.7482 1364.4283)" class="st8" cx="726.1" cy="639.3" rx="108.1" ry="155"/>
			</g>
			<path class="st11" d="M880.2,632.7c-0.1,59.7-69.6,108-155.2,107.8s-154.9-48.6-154.8-108.3c0.1-59.7,69.6-108,155.2-107.8
				C811,524.5,880.3,573,880.2,632.7z"/>
			<g class="st7">
				<path class="st8" d="M933.9,594.5c0,0-88,246-397.5,291.2l1.1,16.6l376.4,0.6L933.9,594.5z"/>
			</g>
		</g>
		<g>
			<path class="st3" d="M883.2,313.2c1.1,4.8,3.5,9.4,7.5,13.1c10.6,10,27.5,9.8,37.9-0.4c9.2-9.1,10-23.2,2.7-33.2
				c4-1.6,7.7-4,10.8-7.1c12.5-12.4,12.3-32.4-0.5-44.5s-33.4-11.9-45.9,0.5c-3.8,3.8-6.5,8.3-7.9,13.1c-11.3-4-24.4-1.5-33.3,7.3
				c-12.2,12.1-11.9,31.4,0.5,43.2C862.7,312.4,873.3,315.1,883.2,313.2z"/>
			<path class="st4" d="M854.9,305.1c7.8,7.4,18.4,10,28.3,8.1c1.1,4.8,3.5,9.4,7.5,13.1c6.3,6,15,8.3,23.1,7
				c-4.4-1.7-8.6-4.2-12.2-7.6c-7.9-7.5-11.5-17.5-10.8-27.4c-10.2,0.9-20.6-2.4-28.5-9.8c-6.7-6.4-10.4-14.7-10.8-23.2
				C842.4,277.4,843.6,294.4,854.9,305.1z"/>
		</g>
		<g>
			<path class="st3" d="M838.3,194.8c1.3,4.1,3.7,8,7.4,11c9.9,8.1,24.8,6.9,33.1-2.7c7.5-8.6,7.3-20.9,0.1-29.3
				c3.4-1.6,6.4-3.9,9-6.9c10.2-11.7,8.6-29.1-3.4-39c-12-9.8-30-8.3-40.2,3.3c-3.1,3.6-5.1,7.7-6.1,12c-10.1-2.8-21.4,0.2-28.7,8.5
				c-9.8,11.3-8.3,28.2,3.3,37.8C820.3,195.5,829.8,197.2,838.3,194.8z"/>
			<path class="st4" d="M813,189.5c7.3,5.9,16.8,7.6,25.3,5.3c1.3,4.1,3.7,8,7.4,11c6,4.9,13.7,6.4,20.7,4.7
				c-4-1.2-7.8-3.1-11.2-5.9c-7.4-6-11.2-14.6-11.3-23.3c-8.8,1.4-18.2-0.8-25.6-6.8c-6.3-5.2-10-12.2-11-19.6
				C800.2,166.1,802.3,180.9,813,189.5z"/>
		</g>
		<g>
			<path class="st3" d="M590.5,186.7c2.5,0.1,5-0.1,7.5-0.7c16.1-3.5,26.2-19,22.6-34.6c-3.4-14.5-17.6-24-32.5-22.3
				c0.2-2.4,0.1-4.9-0.5-7.4c-3-12.8-16.1-20.8-29.4-17.9c-13.2,2.9-21.5,15.6-18.6,28.3c-8.5,3.1-13.6,12-11.5,20.8
				c2.1,8.9,10.7,14.8,19.9,14c-5.1,5.5-7.5,13.3-5.7,21.1c3,12.8,16.1,20.8,29.4,17.9C581.7,203.7,588.8,195.9,590.5,186.7z
				 M561.6,159.4c0,0-0.1,0-0.2,0c0-0.1,0.1-0.1,0.2-0.2C561.6,159.3,561.6,159.3,561.6,159.4z"/>
			<g>
				<path class="st4" d="M571.7,205.9c10-2.2,17.2-10,18.8-19.1c2.5,0.1,5-0.1,7.5-0.7c16.1-3.5,26.2-19,22.6-34.6
					c-0.8-3.4-2.2-6.6-4.1-9.3c0.2,0.5,0.3,1.1,0.4,1.6c3.3,14.2-5.9,28.3-20.6,31.5c-5.8,1.3-11.7,0.6-16.8-1.5
					c2.8,13-5.7,25.8-19.1,28.7c-1.5,0.3-3.1,0.5-4.6,0.6c-0.5,0.2-1,0.4-1.5,0.6C559.6,206.2,565.6,207.2,571.7,205.9z"/>
			</g>
		</g>
	</g>
</g>
</svg>
