<?xml version="1.0" encoding="utf-8"?>
<!-- Generator: Adobe Illustrator 24.2.1, SVG Export Plug-In . SVG Version: 6.00 Build 0)  -->
<svg version="1.1" id="Capa_1" xmlns="http://www.w3.org/2000/svg" xmlns:xlink="http://www.w3.org/1999/xlink" x="0px" y="0px"
	 viewBox="0 0 500 500" style="enable-background:new 0 0 500 500;" xml:space="preserve">
<style type="text/css">
	.st0{fill:#FFFFFF;}
</style>
<g>
	<path class="st0" d="M488.2,193.1l-38.4-8.4c-3.3-10.2-7.5-20.2-12.4-29.8l21.3-33.1c3.8-5.9,3-13.7-2-18.6l-59.9-59.9
		c-5-5-12.7-5.8-18.6-2l-33.1,21.3c-9.6-4.9-19.6-9-29.8-12.4l-8.4-38.4C305.4,4.9,299.4,0,292.3,0h-84.7c-7,0-13.1,4.9-14.6,11.8
		l-8.4,38.4c-10.2,3.3-20.2,7.5-29.8,12.4l-33.1-21.3c-5.9-3.8-13.7-3-18.6,2l-59.9,59.9c-5,5-5.8,12.7-2,18.6l21.3,33.1
		c-4.9,9.6-9,19.6-12.4,29.8l-38.4,8.4C4.9,194.6,0,200.6,0,207.7v84.7c0,7,4.9,13.1,11.8,14.6l38.4,8.4
		c3.3,10.2,7.5,20.2,12.4,29.8l-21.3,33.1c-3.8,5.9-3,13.7,2,18.6l59.9,59.9c5,5,12.7,5.8,18.6,2l33.1-21.3
		c9.6,4.9,19.6,9,29.8,12.4l8.4,38.4c1.5,6.9,7.6,11.8,14.6,11.8h84.7c7,0,13.1-4.9,14.6-11.8l8.4-38.4c10.2-3.3,20.2-7.5,29.8-12.4
		l33.1,21.3c5.9,3.8,13.7,3,18.6-2l59.9-59.9c5-5,5.8-12.7,2-18.6l-21.3-33.1c4.9-9.6,9-19.6,12.4-29.8l38.4-8.4
		c6.9-1.5,11.8-7.6,11.8-14.6v-84.7C500,200.6,495.1,194.6,488.2,193.1z M339.6,250c0,49.4-40.2,89.6-89.6,89.6
		s-89.6-40.2-89.6-89.6s40.2-89.6,89.6-89.6S339.6,200.6,339.6,250z"/>
</g>
</svg>
